<svg viewBox="0 0 323.47 431.96" width="323.47" height="431.96" xmlns="http://www.w3.org/2000/svg"><path d="m249 32.46h-200.09a47.65 47.65 0 0 0 -47.65 47.65v200.06a47.65 47.65 0 0 0 47.65 47.66h32.38a23.47 23.47 0 0 1 16.58 6.86l42.3 42.3a12.39 12.39 0 0 0 17.54 0l42.3-42.3a23.47 23.47 0 0 1 16.58-6.86h32.41a47.65 47.65 0 0 0 47.65-47.66v-200.06a47.65 47.65 0 0 0 -47.65-47.65zm-20.73 231h-158.63a3.77 3.77 0 0 1 -3.77-3.77v-158.06a3.77 3.77 0 0 1 3.77-3.77h158.6a3.77 3.77 0 0 1 3.77 3.77v158.1a3.77 3.77 0 0 1 -3.77 3.77z" fill="#009eff" transform="translate(-1.26 -3.7)"/><ellipse cx="147.68" cy="419.32" fill="#c6c6c6" rx="76.27" ry="12.64"/><circle cx="263.44" cy="60.02" fill="#ee4f38" r="60.02"/><g transform="translate(-1.26 -3.7)"><path d="m248.64 45.31v-14.31h24.84v65.53h-16v-51.22z" fill="#fff"/><path d="m78.84 193.32a32.45 32.45 0 0 1 1.92 3.39 40.15 40.15 0 0 0 8.45 12.39c3.71 3.81 7.6 7.46 11.56 11a59.84 59.84 0 0 0 25.4 13.63c2.11.54 4.36.52 6.46 1.09 4.86 1.33 9.78.49 14.5-.17 4.25-.6 8.28-2.8 12.38-4.38a39.91 39.91 0 0 0 3.91-2 96 96 0 0 0 15-10.2c10.81-8.55 18.62-19.38 25-31.41a41.62 41.62 0 0 0 4.14-14.26c.34-2.47 0-5.5 2.6-7.31a3 3 0 0 1 1.31-.72q2.79-.13 5.58 0a4.83 4.83 0 0 1 4.63 4 57.71 57.71 0 0 1 .23 8 27.64 27.64 0 0 1 -.61 5.12 29.58 29.58 0 0 1 -1.48 4.77 52.54 52.54 0 0 1 -3.4 7.52c-2.69 4.42-4.58 9.32-8 13.33-.6.71-1.07 1.54-1.67 2.25-3.63 4.29-7.1 8.74-11 12.8a70.52 70.52 0 0 1 -14.2 11.84c-3.7 2.23-7.15 4.92-11 7-2.89 1.57-6.16 2.45-9.26 3.62s-6 2.27-9 3.32a5.83 5.83 0 0 1 -2.77.43 12.46 12.46 0 0 0 -6.44.89c-1.88.68-3.78-.22-5.42.21a19.9 19.9 0 0 1 -5.88.35 56.25 56.25 0 0 1 -19.76-4.69 51.68 51.68 0 0 1 -18.76-12.79 97.25 97.25 0 0 1 -13.58-18.34c-2.51-4.41-3.51-9.12-4.45-13.93a11.4 11.4 0 0 1 0-3.14 3.54 3.54 0 0 1 3.61-3.61z" fill="#28348a"/><path d="m158.7 161.92c-1-1.57-1.82-3.16-1.39-5.12a2.65 2.65 0 0 0 -.23-1.45 32.69 32.69 0 0 1 -2.25-14.15c.09-2-.33-4-.14-5.92.5-5.18 1.82-10 6.07-13.59a2.93 2.93 0 0 1 3.34-.48 17.92 17.92 0 0 0 3.72 1.12c2.45.45 4 1.76 4.17 4.28a54.81 54.81 0 0 1 .14 6.28c-.13 3.32-.82 6.66.35 9.94a6.74 6.74 0 0 1 .26 1.49c.29 2.25 0 4.53.78 6.78a4 4 0 0 1 -.34 3.44c-.68 1.19-.63 2.85-.73 4.32-.15 2.37-.79 3.19-3.14 3.67-2.77.58-5.53.19-8.28-.12a22.39 22.39 0 0 1 -2.33-.49z" fill="#28348a"/><path d="m114.09 142.38c.45 2.07.85 4.15 1.35 6.21 1.24 5.14 2.52 10.28 3.78 15.42.47 2-1.17 4.76-3 5.46a19.48 19.48 0 0 0 -3.32 1.53 3.69 3.69 0 0 1 -4.91-.75 13.47 13.47 0 0 1 -3.6-6 69.73 69.73 0 0 1 -2.52-17.55c-.08-2.61-.33-5.23-.22-7.83a24.69 24.69 0 0 1 1-5.55 2.38 2.38 0 0 1 2-1.95 9 9 0 0 0 2.52-.82 3.36 3.36 0 0 1 4.83 1.65 34.45 34.45 0 0 1 1.64 5.38c.37 1.55.53 3.15.78 4.73z" fill="#28348a"/></g></svg>
